<?xml version="1.0" encoding="utf-8"?>
<!-- Generator: Adobe Illustrator 24.1.2, SVG Export Plug-In . SVG Version: 6.00 Build 0)  -->
<svg version="1.1" id="Layer_1" xmlns="http://www.w3.org/2000/svg" xmlns:xlink="http://www.w3.org/1999/xlink" x="0px" y="0px"
	 viewBox="0 0 456.4 405.4" style="enable-background:new 0 0 456.4 405.4;" xml:space="preserve">
<style type="text/css">
	.st0{fill:none;stroke:#FFFFFF;stroke-linecap:round;stroke-linejoin:round;stroke-miterlimit:10;}
	.st1{fill:none;stroke:#1E1E1C;stroke-width:4.9606;stroke-linecap:round;stroke-linejoin:round;}
	.st2{fill:#FFFFFF;stroke:#1E1E1C;stroke-width:4.9606;stroke-linecap:round;stroke-linejoin:round;}
	.st3{fill:none;}
	.st4{fill:none;stroke:#1E1E1C;stroke-linecap:round;stroke-linejoin:round;}
	.st5{fill:none;stroke:#1E1E1C;stroke-width:0.75;stroke-linecap:round;stroke-linejoin:round;}
	.st6{fill:#FFFFFF;}
	.st7{fill:none;stroke:#1E1E1C;stroke-width:0.123;stroke-linecap:round;stroke-linejoin:round;stroke-miterlimit:3.864;}
	.st8{fill:none;stroke:#20201E;stroke-width:6;stroke-linecap:round;stroke-linejoin:round;}
	.st9{fill:none;stroke:#261F1F;stroke-width:6;stroke-linecap:round;stroke-linejoin:round;stroke-miterlimit:10;}
	.st10{fill:#1E1E1C;stroke:#1E1E1C;stroke-width:4.252;stroke-linecap:round;stroke-linejoin:round;}
	.st11{fill:none;stroke:#020203;stroke-width:4.9606;stroke-linecap:round;stroke-linejoin:round;stroke-miterlimit:10;}
	.st12{fill:#FFFFFF;stroke:#020203;stroke-width:0.5;stroke-linecap:round;stroke-linejoin:round;stroke-miterlimit:10;}
	.st13{fill:#020203;}
	.st14{fill:none;stroke:#1E1E1C;stroke-width:4.9606;stroke-linecap:round;stroke-linejoin:round;stroke-miterlimit:10;}
</style>
<g id="Sketch">
	<path class="st0" d="M295.7,329.7c7-31.3,3.7-103.2,4.4-115c0,0-0.2-30.6,3.3-60c-5.2-4.8-38.3-25.5-38.3-25.5
		c-15.6,16.1-24.2,21.4-36.6,21.2c0,0-0.1,0-0.6,0"/>
	<path class="st1" d="M295.7,346.5c7-31.3,3.7-120.1,4.4-131.8c0,0-0.2-30.6,3.3-60c-5.2-4.8-37.4-23.1-37.4-23.1"/>
	<path class="st0" d="M225.7,150.4c-0.6,0-1.3,0-1.3,0s-21.5,0.3-31.6-23.1c6.4-3.9-34.2,21.1-40.6,26.6
		c-23.5,20.4,3.7,81.1,3.7,81.1c0.7,11.4-3.7,65,2.7,94.7"/>
	<path class="st1" d="M185.3,131.6c0,0-27.9,17.4-33.1,22.2c7.5,30.2,3.7,81.1,3.7,81.1c0.7,11.4-2.7,64.1,0.7,93"/>
	<path class="st2" d="M159.8,222.4l-11.1,51.1c0,0-0.1,15.7-0.1,17.2c0,0.7-2,67-3.1,72.6c-5.6-1.9-29.8,0.6-29.8,0.6
		c-10.3-42.9-6.4-93.8-2.2-111.3c7-29.2,17.8-71.3,38.5-98.6C151.9,154,162.5,182.9,159.8,222.4z"/>
	<path class="st2" d="M294.4,222.4l11.1,51.1c0,0,0.1,15.7,0.1,17.2c0,0.6,1.8,66.2,4.3,72.7c0,0,29.2-0.7,28.9,0.8
		c8.5-42.7,1.5-99.2-0.6-113.2c-5-32.3-20.9-72.7-36-97C302.3,154,291.7,182.9,294.4,222.4z"/>
	<line class="st3" x1="309.1" y1="359.1" x2="310" y2="363.3"/>
	<line class="st4" x1="339.6" y1="361.7" x2="339.6" y2="359.7"/>
	<path class="st4" d="M309.1,359.1l0.9,4.2c0,0,7.7,4,28.9,0.8"/>
	<path class="st5" d="M145.4,362.7c0,0-13.9-0.2-29.8,1.3c0,0,7.9,2.3,29.8,0"/>
	<rect x="226.4" y="159.8" class="st6" width="1.1" height="0.2"/>
	<rect x="226.4" y="159.8" class="st7" width="1.1" height="0.2"/>
	<rect x="226.4" y="160.6" class="st6" width="1.1" height="0.2"/>
	<rect x="226.4" y="160.6" class="st7" width="1.1" height="0.2"/>
	<rect x="226.4" y="161.3" class="st6" width="1.1" height="0.2"/>
	<rect x="226.4" y="161.3" class="st7" width="1.1" height="0.2"/>
	<rect x="226.4" y="162.1" class="st6" width="1.1" height="0.2"/>
	<rect x="226.4" y="162.1" class="st7" width="1.1" height="0.2"/>
	<rect x="226.4" y="162.9" class="st6" width="1.1" height="0.2"/>
	<rect x="226.4" y="162.9" class="st7" width="1.1" height="0.2"/>
	<rect x="226.4" y="163.7" class="st6" width="1.1" height="0.2"/>
	<rect x="226.4" y="163.7" class="st7" width="1.1" height="0.2"/>
	<rect x="226.4" y="164.5" class="st6" width="1.1" height="0.2"/>
	<rect x="226.4" y="164.5" class="st7" width="1.1" height="0.2"/>
	<rect x="226.4" y="165.3" class="st6" width="1.1" height="0.2"/>
	<rect x="226.4" y="165.3" class="st7" width="1.1" height="0.2"/>
	<rect x="226.4" y="166.1" class="st6" width="1.1" height="0.2"/>
	<rect x="226.4" y="166.1" class="st7" width="1.1" height="0.2"/>
	<rect x="226.4" y="166.8" class="st6" width="1.1" height="0.2"/>
	<rect x="226.4" y="166.8" class="st7" width="1.1" height="0.2"/>
	<rect x="225.9" y="161" class="st6" width="1.1" height="0.2"/>
	<rect x="225.9" y="161" class="st7" width="1.1" height="0.2"/>
	<rect x="225.9" y="161.8" class="st6" width="1.1" height="0.2"/>
	<rect x="225.9" y="161.8" class="st7" width="1.1" height="0.2"/>
	<rect x="225.9" y="162.6" class="st6" width="1.1" height="0.2"/>
	<rect x="225.9" y="162.6" class="st7" width="1.1" height="0.2"/>
	<rect x="225.9" y="163.4" class="st6" width="1.1" height="0.2"/>
	<rect x="225.9" y="163.4" class="st7" width="1.1" height="0.2"/>
	<rect x="225.9" y="164.2" class="st6" width="1.1" height="0.2"/>
	<rect x="225.9" y="164.2" class="st7" width="1.1" height="0.2"/>
	<rect x="225.9" y="165" class="st6" width="1.1" height="0.2"/>
	<rect x="225.9" y="165" class="st7" width="1.1" height="0.2"/>
	<rect x="225.9" y="165.7" class="st6" width="1.1" height="0.2"/>
	<rect x="225.9" y="165.7" class="st7" width="1.1" height="0.2"/>
	<rect x="225.9" y="166.5" class="st6" width="1.1" height="0.2"/>
	<rect x="225.9" y="166.5" class="st7" width="1.1" height="0.2"/>
	<polyline class="st1" points="156.6,327.9 158.8,346.6 227.7,346.4 	"/>
	<line class="st1" x1="295.7" y1="346.5" x2="227.7" y2="346.4"/>
	<rect x="226.6" y="151" class="st6" width="1.1" height="0.2"/>
	<rect x="226.6" y="151.8" class="st6" width="1.1" height="0.2"/>
	<rect x="226.6" y="152.6" class="st6" width="1.1" height="0.2"/>
	<rect x="226.6" y="153.3" class="st6" width="1.1" height="0.2"/>
	<rect x="226.6" y="154.1" class="st6" width="1.1" height="0.2"/>
	<rect x="226.6" y="154.1" class="st7" width="1.1" height="0.2"/>
	<rect x="226.6" y="154.9" class="st6" width="1.1" height="0.2"/>
	<rect x="226.6" y="154.9" class="st7" width="1.1" height="0.2"/>
	<rect x="226.6" y="155.7" class="st6" width="1.1" height="0.2"/>
	<rect x="226.6" y="155.7" class="st7" width="1.1" height="0.2"/>
	<rect x="226.6" y="156.5" class="st6" width="1.1" height="0.2"/>
	<rect x="226.6" y="156.5" class="st7" width="1.1" height="0.2"/>
	<rect x="226.6" y="157.3" class="st6" width="1.1" height="0.2"/>
	<rect x="226.6" y="157.3" class="st7" width="1.1" height="0.2"/>
	<rect x="226.6" y="158.1" class="st6" width="1.1" height="0.2"/>
	<rect x="226.6" y="158.1" class="st7" width="1.1" height="0.2"/>
	<rect x="226.6" y="158.8" class="st6" width="1.1" height="0.2"/>
	<rect x="226.6" y="158.8" class="st7" width="1.1" height="0.2"/>
	<rect x="226.1" y="153.8" class="st6" width="1.1" height="0.2"/>
	<rect x="226.1" y="153.8" class="st7" width="1.1" height="0.2"/>
	<rect x="226.1" y="154.6" class="st6" width="1.1" height="0.2"/>
	<rect x="226.1" y="154.6" class="st7" width="1.1" height="0.2"/>
	<rect x="226.1" y="155.4" class="st6" width="1.1" height="0.2"/>
	<rect x="226.1" y="155.4" class="st7" width="1.1" height="0.2"/>
	<rect x="226.1" y="156.2" class="st6" width="1.1" height="0.2"/>
	<rect x="226.1" y="156.2" class="st7" width="1.1" height="0.2"/>
	<rect x="226.1" y="156.9" class="st6" width="1.1" height="0.2"/>
	<rect x="226.1" y="156.9" class="st7" width="1.1" height="0.2"/>
	<rect x="226.1" y="157.7" class="st6" width="1.1" height="0.2"/>
	<rect x="226.1" y="157.7" class="st7" width="1.1" height="0.2"/>
	<rect x="226.1" y="158.5" class="st6" width="1.1" height="0.2"/>
	<rect x="226.1" y="158.5" class="st7" width="1.1" height="0.2"/>
	<rect x="226.1" y="159.3" class="st6" width="1.1" height="0.2"/>
	<rect x="226.1" y="159.3" class="st7" width="1.1" height="0.2"/>
	<polyline class="st1" points="158.8,346.6 157.3,330.4 207.2,341.3 	"/>
	<path class="st8" d="M308.2,348.2c1.9-1.9,24.3-2.9,33.1,0.7"/>
	<path class="st8" d="M112.6,349c12.6-1.7,22.3-2.5,33.8-0.7"/>
	<line class="st9" x1="207.4" y1="341.4" x2="207.4" y2="346.4"/>
	<g>
		<polygon class="st10" points="224.5,153.7 227.9,153.7 227.9,167 224.5,167.1 		"/>
	</g>
	<path class="st1" d="M225.5,153c-30.8-2.2-40.2-21.4-40.2-21.4s1-6.6,5-6.1s-15.8-28.1,3.3-61.1c5.3-9.2,9.1-19.9,32.1-22.3"/>
	<path class="st1" d="M225.5,153c25.9-2.2,40.5-21.4,40.5-21.4s-1-6.6-5-6.1s11.9-25.1-0.5-61.1c-3-8.6-14.5-21.8-34.7-22.4"/>
	<path class="st1" d="M225.5,153c0,0-19.5-28.4-19.9-47.6c-0.4-19.2-3.6-26.2,2.7-34.1s16.3-8.7,16.3-8.7s8-1.8,18.9,5.7
		c10.9,7.4,5.9,41.5,0,52.4c-4.8,8.9-9.1,15.3-11.3,23.1C230,151.7,225.5,153,225.5,153z"/>
	<path class="st11" d="M210.4,125.1c0,0,12.1,4.4,30.6,0"/>
	<circle class="st12" cx="217.6" cy="145.9" r="1.7"/>
	<path class="st13" d="M216.6,145.8l-2.2,61.3c0,0.5,0.4,1,0.9,1l0.4,0c0.5,0,1-0.4,1-0.9l1.8-61.3c0-0.5-0.4-1-0.9-1l0,0
		C217.1,144.8,216.6,145.2,216.6,145.8z"/>
	<circle class="st12" cx="234.1" cy="145.9" r="1.7"/>
	<path class="st13" d="M233,146.3l3.7,61.2c0,0.5,0.5,0.9,1,0.9l0.4,0c0.6,0,1-0.5,0.9-1l-4.2-61.2c0-0.5-0.5-0.9-1-0.9l0,0
		C233.4,145.3,233,145.7,233,146.3z"/>
	<line class="st1" x1="297.7" y1="330.3" x2="247.7" y2="341.1"/>
	<line class="st9" x1="247.6" y1="341.3" x2="247.6" y2="346.2"/>
	<line class="st14" x1="226.8" y1="346.6" x2="226.8" y2="167.1"/>
</g>
<g id="text">
</g>
<g id="info">
</g>
<g id="info_1_">
</g>
</svg>
