<?xml version="1.0" encoding="utf-8"?>
<!-- Generator: Adobe Illustrator 24.1.2, SVG Export Plug-In . SVG Version: 6.00 Build 0)  -->
<svg version="1.1" id="Layer_1" xmlns="http://www.w3.org/2000/svg" xmlns:xlink="http://www.w3.org/1999/xlink" x="0px" y="0px"
	 viewBox="0 0 456.4 405.4" style="enable-background:new 0 0 456.4 405.4;" xml:space="preserve">
<style type="text/css">
	.st0{fill:none;stroke:#000000;stroke-width:6;stroke-linecap:round;stroke-linejoin:round;stroke-miterlimit:10;}
	.st1{fill:none;stroke:#000000;stroke-width:5;stroke-linecap:round;stroke-linejoin:round;stroke-miterlimit:10;}
	.st2{stroke:#000000;stroke-width:3;stroke-linecap:round;stroke-linejoin:round;stroke-miterlimit:10;}
	.st3{fill:#FFFFFF;stroke:#000000;stroke-width:5;stroke-linecap:round;stroke-linejoin:round;stroke-miterlimit:10;}
	.st4{fill:#FFFFFF;stroke:#000000;stroke-width:6;stroke-linecap:round;stroke-linejoin:round;stroke-miterlimit:10;}
	.st5{fill:none;stroke:#000000;stroke-width:4;stroke-linecap:round;stroke-linejoin:round;}
</style>
<g id="Sketch">
	<path class="st0" d="M226.7,349.5c68.8,0,70.3-17,81.8-21.5c-3-122.7-2.1-133.6-0.2-151.7c-12.5-18.1-4.3-90.9-4.3-90.9l-49.5-18.9
		c-0.2,0.2-8.1,19.5-27.8,19.5s-28.2-19.5-28.2-19.5l-49,18.7c0,0,7.9,73-4.6,91.1c1.9,18.1,2.8,27.7-0.4,151.7
		C154.4,331.2,157.9,349.5,226.7,349.5z"/>
	<path class="st0" d="M304.2,85.4c0,0,18.1,17.8,23.1,24.3s23.1,36.7,37.2,85.2c0,0-5.7,91.6-9,104.6c-3.2,13-6.2,15.9-6.2,15.9
		l-24.2-2.8c0,0-1.8-6.1-2.3-19c-0.5-15.2-3.5-111.7-3.5-111.7l-10.7-5.6C308.5,176.3,293.5,163.7,304.2,85.4z"/>
	<g>
		<path d="M316.6,181.9c0.2-5.4,0.5-10.7,0.9-16s0.9-10.7,1.6-15.9c0.7-5.3,1.4-10.6,2.5-15.8s2.3-10.4,4.1-15.4
			c-1.4,5.1-2.2,10.4-2.9,15.6c-0.6,5.3-1,10.5-1.2,15.8s-0.3,10.6-0.3,15.9c0,5.3,0.2,10.6,0.4,15.8l0,0c0.1,1.4-1,2.7-2.5,2.7
			c-1.4,0.1-2.7-1-2.7-2.5C316.6,182.1,316.6,182,316.6,181.9z"/>
	</g>
	<polygon class="st0" points="325.1,312.7 349.3,315.4 347.1,328.6 324.1,326.1 	"/>
	<line class="st1" x1="222.1" y1="86.1" x2="222.1" y2="349.5"/>
	<g>
		<path d="M332.6,314.1c0-0.4,0-0.6,0-0.8v-0.7l0.1-1.3l0.1-2.6l0.4-5.2c0.3-3.4,0.6-6.9,0.9-10.3c0.6-6.9,1.3-13.7,2.1-20.6
			c0.1,6.9,0.3,13.8,0.5,20.7c0.1,3.4,0.2,6.9,0.4,10.3l0.3,5.1l0.2,2.5l0.1,1.2l0.1,0.6c0,0.2,0.1,0.4,0.1,0.5
			c0.5,1.4-0.1,2.9-1.5,3.4s-2.9-0.1-3.4-1.5c-0.1-0.3-0.2-0.5-0.2-0.8L332.6,314.1z"/>
	</g>
	<path class="st0" d="M252.7,58l3.1,8.5c0,0-14.2,3-28.2,3s-29.1-3-29.1-3l3.1-8.5c0,0,11.5,1.5,26,1.5S252.7,58,252.7,58z"/>
	<path class="st2" d="M233.7,100.7c0,0.9-0.7,1.6-1.6,1.6c-0.9,0-1.6-0.7-1.6-1.6s0.7-1.6,1.6-1.6S233.7,99.8,233.7,100.7z"/>
	<path class="st2" d="M233.7,140.2c0,0.9-0.7,1.6-1.6,1.6c-0.9,0-1.6-0.7-1.6-1.6c0-0.9,0.7-1.6,1.6-1.6
		C233,138.6,233.7,139.4,233.7,140.2z"/>
	<path class="st2" d="M233.7,179.8c0,0.9-0.7,1.6-1.6,1.6s-1.6-0.7-1.6-1.6c0-0.9,0.7-1.6,1.6-1.6S233.7,178.9,233.7,179.8z"/>
	<path class="st2" d="M233.7,219.4c0,0.9-0.7,1.6-1.6,1.6s-1.6-0.7-1.6-1.6c0-0.9,0.7-1.6,1.6-1.6S233.7,218.5,233.7,219.4z"/>
	<path class="st2" d="M233.7,259c0,0.9-0.7,1.6-1.6,1.6s-1.6-0.7-1.6-1.6s0.7-1.6,1.6-1.6S233.7,258.1,233.7,259z"/>
	<path class="st2" d="M233.7,298.6c0,0.9-0.7,1.6-1.6,1.6s-1.6-0.7-1.6-1.6s0.7-1.6,1.6-1.6S233.7,297.7,233.7,298.6z"/>
	<line class="st1" x1="149.5" y1="86" x2="198.5" y2="67.5"/>
	<line class="st0" x1="304.2" y1="86.2" x2="255.8" y2="67.5"/>
	<line class="st0" x1="341.4" y1="314.5" x2="345.8" y2="314.9"/>
	<path id="Collar_Stand_41_" class="st3" d="M199.1,66.9l2.1-5.8c0,0,9.4,18.2,26.4,19.1c1.8,0.1,5,0.4,4.8,5.9
		C220,87.4,207.4,83,199.1,66.9z"/>
	<path id="Collar_Stand_36_" class="st3" d="M199,66.8l2.1-5.9c0,0,9.4,18.2,26.4,19.1c1.8,0.1,5,0.4,4.8,5.9
		C219.9,87.3,207.3,82.9,199,66.8z"/>
	<path id="Collar_Stand_34_" class="st4" d="M198.5,66.6l3.1-8.4c0,0,13.6,19.7,25.8,19.7c0,0,6.1,1.1,4.8,8.7
		C220.3,88.4,208.8,84.6,198.5,66.6z"/>
	<path id="Collar_Stand_32_" class="st4" d="M255.8,66.7l-3.1-8.5c0,0-11.9,19.5-25.8,19.5c0,0-6.1,1.5-4.8,9
		C234.7,88,245.6,84.8,255.8,66.7z"/>
	<polygon class="st5" points="250.4,138.6 285.3,138.6 285.3,171.4 267.7,176.3 250.4,170.8 	"/>
	<path class="st0" d="M148.8,85.4c0,0-18.1,17.8-23.1,24.3c-5,6.5-23.1,36.7-37.2,85.2c0,0,5.7,91.6,9,104.6
		c3.2,13,6.2,15.9,6.2,15.9l24.2-2.8c0,0,1.8-6.1,2.3-19c0.5-15.2,3.5-111.7,3.5-111.7l10.7-5.6C144.5,176.3,159.6,163.7,148.8,85.4
		z"/>
	<g>
		<path d="M131.2,181.8c0.3-5.2,0.4-10.5,0.4-15.8s0-10.6-0.3-15.9c-0.3-5.3-0.6-10.6-1.2-15.8c-0.6-5.3-1.5-10.5-2.9-15.6
			c1.8,5,3.1,10.2,4.1,15.4c1.1,5.2,1.8,10.5,2.5,15.8s1.2,10.6,1.6,15.9c0.4,5.3,0.7,10.7,0.9,16c0,1.4-1.1,2.6-2.5,2.7
			c-1.4,0-2.6-1.1-2.7-2.5C131.2,182,131.2,182,131.2,181.8L131.2,181.8z"/>
	</g>
	<polygon class="st0" points="127.9,312.7 103.8,315.4 106,328.6 128.9,326.1 	"/>
	<g>
		<path d="M115.3,313.5c0,0,0-0.3,0.1-0.5l0.1-0.6l0.1-1.2l0.2-2.5l0.3-5.1c0.2-3.4,0.3-6.9,0.4-10.3c0.2-6.9,0.4-13.8,0.5-20.7
			c0.7,6.9,1.4,13.7,2.1,20.6c0.3,3.4,0.6,6.9,0.9,10.3l0.4,5.2l0.1,2.6l0.1,1.3v0.7c0,0.3,0,0.4,0,0.8v0.5
			c-0.1,1.5-1.3,2.6-2.8,2.5s-2.6-1.3-2.5-2.8C115.2,314,115.2,313.7,115.3,313.5z"/>
	</g>
	<line class="st0" x1="111.7" y1="314.5" x2="107.3" y2="314.9"/>
</g>
<g id="text">
</g>
<g id="info">
</g>
</svg>
