<?xml version="1.0" encoding="utf-8"?>
<!-- Generator: Adobe Illustrator 24.1.2, SVG Export Plug-In . SVG Version: 6.00 Build 0)  -->
<svg version="1.1" id="Layer_1" xmlns="http://www.w3.org/2000/svg" xmlns:xlink="http://www.w3.org/1999/xlink" x="0px" y="0px"
	 viewBox="0 0 456.4 405.4" style="enable-background:new 0 0 456.4 405.4;" xml:space="preserve">
<style type="text/css">
	.st0{fill:none;stroke:#020203;stroke-width:6;stroke-linecap:round;stroke-linejoin:round;stroke-miterlimit:10;}
	.st1{fill:none;stroke:#020203;stroke-width:4;stroke-linecap:round;stroke-linejoin:round;stroke-miterlimit:10;}
</style>
<g id="Sketch">
	<path class="st0" d="M304,174.3l8.5,14.9l51.5-30.5c0,0-42.2-71.1-51.4-79.1c-13.8-11.8-44.6-21.7-44.6-21.7
		c-3.9,12.7-14.6,28.9-42.4,28.2c-30.7-0.8-40.6-28.2-40.6-28.2s-38.4,13.9-44.5,21.9c-6.2,8-48.1,78.9-48.1,78.9l52,32.1l7.8-16.1
		l0.3,171.6c0,0,47.7,9.8,151.7,0L304,174.3"/>
	<path class="st0" d="M140.4,79.7c-2.3,4.9,6.7-26,11.9,94.5"/>
	<path class="st0" d="M312.6,79.5c-1.2,1.3-4.7-9.5-8.6,98.5"/>
	<path class="st0" d="M184.3,57.8c0,0,38.6,13.5,83.6,0"/>
	<g>
		<path class="st1" d="M180.4,62.1c6.6,11.4,15.7,30.8,47.6,30.8"/>
		<path class="st1" d="M272.9,62.1c-5,14-17.2,30.8-46.8,30.8"/>
	</g>
	<line class="st1" x1="95.9" y1="152.6" x2="147.3" y2="184.4"/>
	<line class="st1" x1="309" y1="183.1" x2="360.6" y2="152.9"/>
</g>
<g id="text">
</g>
<g id="info">
</g>
<g id="info_1_">
</g>
</svg>
