<?xml version="1.0" encoding="utf-8"?>
<!-- Generator: Adobe Illustrator 24.1.2, SVG Export Plug-In . SVG Version: 6.00 Build 0)  -->
<svg version="1.1" id="Layer_1" xmlns="http://www.w3.org/2000/svg" xmlns:xlink="http://www.w3.org/1999/xlink" x="0px" y="0px"
	 viewBox="0 0 456.4 405.4" style="enable-background:new 0 0 456.4 405.4;" xml:space="preserve">
<style type="text/css">
	.st0{fill:none;stroke:#010202;stroke-width:5;stroke-linecap:round;stroke-linejoin:round;}
	.st1{fill:none;stroke:#010202;stroke-width:5;stroke-linecap:round;stroke-linejoin:round;stroke-miterlimit:10;}
	.st2{fill:none;stroke:#010202;stroke-width:5;stroke-linecap:round;stroke-linejoin:round;stroke-miterlimit:3.864;}
	.st3{fill:#FFFFFF;stroke:#010202;stroke-width:5;stroke-linecap:round;stroke-linejoin:round;stroke-miterlimit:3.864;}
	.st4{fill:#010202;stroke:#010202;stroke-width:0.1002;}
</style>
<g id="Sketch">
	<path class="st0" d="M278.4,53.1c0,0-17.9-0.6-49.6-0.6l-0.6,0c-26.1,0-26.1,0-45.2,0.2"/>
	<path class="st1" d="M278.2,54c0,0-37,4.7-51.2,4.7c-14.2,0-43.8-4.7-43.8-4.7l-2.2,10.2c5,1.3,31.1,5.4,50,5.1
		c18.2-0.3,41.3-3.8,49-5.4L278.2,54z"/>
	<path class="st2" d="M279.9,64c16,56.7,4.6,246.3,3.4,289.4l0,0c-4.5,2.6-13,3.4-17.3,3.4c-11.8,0-19.6-3.4-19.6-3.4
		C244.2,277.2,239.3,217,234,160c-0.3-2.7-1.4-26.1-4.2-26.1l0,0c-2.1-1.4-3.4,23.3-3.6,26c-5.9,57.5-10,117.3-12.1,193.5
		c0,0-8.5,3.4-18.7,3.4c-4.3,0-11.7-1.5-18.1-3.4l0,0c-1.3-43.1-9.9-242.7,6.1-299.4"/>
	<path class="st3" d="M279.9,64l-1.7-9.9c0,0-23.4,5.1-51.2,4.7c-28.6-0.4-43.8-4.7-43.8-4.7"/>
	<path class="st2" d="M180.9,64.3c5,1.3,31.1,5.4,50,5.1c18.2-0.3,41.3-3.2,49-4.8"/>
	<line class="st2" x1="183.1" y1="54" x2="180.9" y2="64.3"/>
	<line class="st2" x1="230.3" y1="119" x2="230.3" y2="134.5"/>
	<line class="st2" x1="230.5" y1="69.4" x2="230.3" y2="119"/>
	<line class="st0" x1="176" y1="116.3" x2="188.8" y2="65.9"/>
	<line class="st0" x1="286.5" y1="116.3" x2="273.8" y2="65.9"/>
	<g>
		<g>
			<g>
				<path class="st4" d="M232,134.3c2.8-1.1,4.9-2.2,6.5-3c0.8-0.4,1.3-0.7,1.7-1c0.4-0.2,0.6-0.4,0.6-0.4s-0.2,0-0.6,0
					c-0.4,0-0.9-0.1-1.4-0.1c-1.1,0-2.4,0-3,0.1c-2.1,0.2-4.5,0.8-5.1,1.1c-3.4,1.4-6.7,3.2-9.7,5.6c-1.9,1.6-2,3.1-1.4,3.7
					c0.7,0.6,2,0.4,3.6-0.9C225.8,137.3,228.9,135.7,232,134.3z"/>
			</g>
		</g>
	</g>
	<line class="st2" x1="219.5" y1="59" x2="219.5" y2="69"/>
</g>
<g id="text">
</g>
<g id="info">
</g>
</svg>
